<?xml version="1.0" encoding="UTF-8"?>
<svg width="180" height="180" version="1.1" viewBox="0 0 180 180" xml:space="preserve" xmlns="http://www.w3.org/2000/svg">
<path d="m117.72 99.78v-70.867c0-15.333-12.429-27.767-27.768-27.767-15.338 0-27.767 12.434-27.767 27.767v70.867c-10.146 8.1418-16.66 20.626-16.66 34.648 0 24.535 19.893 44.427 44.427 44.427 24.535 0 44.427-19.893 44.427-44.427 0-14.017-6.5132-26.506-16.66-34.647z" fill="#9a9996"/>
<path d="m134.38 40.018h22.214c3.071 0 5.5536-2.4826 5.5536-5.5536s-2.4826-5.5536-5.5536-5.5536h-22.214c-3.071 0-5.5536 2.4826-5.5536 5.5536s2.4826 5.5536 5.5536 5.5536zm22.214 11.107h-22.214c-3.071 0-5.5536 2.488-5.5536 5.5536 0 3.071 2.4826 5.5536 5.5536 5.5536h22.214c3.071 0 5.5536-2.4826 5.5536-5.5536-5.9e-4 -3.0603-2.482-5.5536-5.5536-5.5536zm0 22.213h-22.214c-3.071 0-5.5536 2.488-5.5536 5.5536 0 3.071 2.4826 5.5536 5.5536 5.5536h22.214c3.071 0 5.5536-2.4826 5.5536-5.5536-5.9e-4 -3.0597-2.482-5.5536-5.5536-5.5536z" fill="#9a9996"/>
<path d="m106.61 105.6v-76.691c0-9.2023-7.4639-16.66-16.66-16.66-9.1963 0-16.66 7.4586-16.66 16.66v76.691c-9.946 5.7642-16.66 16.499-16.66 28.822 0 18.399 14.922 33.321 33.321 33.321 18.399 0 33.321-14.922 33.321-33.321 0-12.323-6.7084-23.058-16.66-28.822z" fill="#fff"/>
<path d="m89.952 159.41c-13.778 0-24.99-11.212-24.99-24.99 0-8.863 4.7927-17.149 12.506-21.62l4.1539-2.4044v-81.489c0-4.5928 3.7376-8.3298 8.3298-8.3298 4.5922 0 8.3298 3.7376 8.3298 8.3298v81.489l4.154 2.4103c7.7136 4.4706 12.506 12.751 12.506 21.62 0 13.778-11.212 24.985-24.99 24.985z" fill="#cb4e44"/>
</svg>
