<?xml version="1.0" encoding="UTF-8"?>
<svg width="16" height="16" version="1.1" viewBox="0 0 16 16" xml:space="preserve" xmlns="http://www.w3.org/2000/svg">
<path d="m7.9957 14.17c-1.2247 0-2.2213-0.99662-2.2213-2.2213 0-0.78782 0.42602-1.5244 1.1116-1.9218l0.36924-0.21372v-7.2435c0-0.40825 0.33223-0.74043 0.74043-0.74043 0.4082 0 0.74043 0.33223 0.74043 0.74043v7.2435l0.36924 0.21425c0.68565 0.39739 1.1116 1.1334 1.1116 1.9218 0 1.2247-0.99662 2.2209-2.2213 2.2209zm3.9492-10.613h1.9746c0.27298 0 0.49365-0.22068 0.49365-0.49365 0-0.27298-0.22068-0.49365-0.49365-0.49365h-1.9746c-0.27298 0-0.49365 0.22068-0.49365 0.49365 0 0.27298 0.22068 0.49365 0.49365 0.49365zm1.9746 0.98729h-1.9746c-0.27298 0-0.49365 0.22116-0.49365 0.49365 0 0.27298 0.22068 0.49365 0.49365 0.49365h1.9746c0.27298 0 0.49365-0.22068 0.49365-0.49365-5.2e-5 -0.27203-0.22062-0.49365-0.49365-0.49365zm0 1.9745h-1.9746c-0.27298 0-0.49365 0.22116-0.49365 0.49365 0 0.27298 0.22068 0.49365 0.49365 0.49365h1.9746c0.27298 0 0.49365-0.22068 0.49365-0.49365-5.2e-5 -0.27197-0.22062-0.49365-0.49365-0.49365zm-5.9238-6.417c-1.3634 0-2.4681 1.1051-2.4681 2.4681v6.2993c-0.90187 0.72372-1.4809 1.8335-1.4809 3.0799 0 2.1809 1.7682 3.9491 3.949 3.9491 2.1809 0 3.9491-1.7683 3.9491-3.9491 0-1.246-0.57896-2.356-1.4809-3.0797l1.78e-4 -1.778e-4v-6.2993c0-1.3629-1.1049-2.4681-2.4684-2.4681zm-1.777e-4 0.98681c0.81743 0 1.4809 0.66292 1.4809 1.4809v6.817h1.778e-4c0.88459 0.51236 1.4809 1.4666 1.4809 2.562 0 1.6355-1.3263 2.9618-2.9618 2.9618-1.6355 0-2.9618-1.3263-2.9618-2.9618 0-1.0954 0.59664-2.0496 1.4807-2.562v-6.817c1e-7 -0.8179 0.66345-1.4809 1.4809-1.4809z"/>
</svg>
